<?xml version="1.0" standalone="no"?>
<!DOCTYPE svg PUBLIC "-//W3C//DTD SVG 20010904//EN"
 "http://www.w3.org/TR/2001/REC-SVG-20010904/DTD/svg10.dtd">
<svg version="1.0" xmlns="http://www.w3.org/2000/svg"
 width="260.000000pt" height="260.000000pt" viewBox="0 0 260.000000 260.000000"
 preserveAspectRatio="xMidYMid meet">
<metadata>
Created by potrace 1.11, written by Peter Selinger 2001-2013
</metadata>
<g transform="translate(0.000000,260.000000) scale(0.100000,-0.100000)"
fill="#000000" stroke="none">
<path d="M0 1300 l0 -1300 1300 0 1300 0 0 1300 0 1300 -1300 0 -1300 0 0
-1300z m1755 1063 c52 -27 126 -107 158 -169 75 -149 75 -294 0 -294 -14 0
-54 18 -89 40 -96 60 -154 80 -235 80 -176 0 -436 -145 -642 -359 -81 -84
-133 -163 -121 -183 9 -15 49 -8 149 28 192 68 318 95 465 101 203 8 329 -18
437 -90 54 -36 107 -108 125 -170 17 -60 14 -229 -6 -312 -24 -100 -104 -256
-182 -353 -218 -273 -624 -480 -901 -460 -175 13 -331 162 -349 335 -11 102
15 153 79 153 43 0 76 -34 84 -86 9 -57 20 -74 66 -95 118 -53 326 17 530 180
122 96 212 207 270 329 30 63 32 73 32 182 0 185 -38 240 -163 240 -127 0
-319 -52 -503 -136 -106 -48 -143 -53 -205 -25 -91 41 -154 127 -154 209 0
255 405 675 803 833 130 52 275 61 352 22z"/>
</g>
</svg>
