<?xml version="1.0" encoding="UTF-8"?>
<svg enable-background="new 0 0 110 130" version="1.1" viewBox="0 0 110 130" xml:space="preserve" xmlns="http://www.w3.org/2000/svg">
    <g fill="#62686E">
      <path d="m54.962 131.26c-24.2 0-37.694-12.051-43.605-19.278-1.871-2.051-3.477-4.221-4.772-6.45-10.984-18.903-8.128-40.729 7.835-59.881l3.014-3.616 1.308 4.521c1.1 3.799 2.565 7.146 4.484 10.191 0.138-20.537 11.487-39.891 32.015-54.048l3.92-2.703v4.761c0 16.052 6.477 25.675 13.375 34.448 0.989-3.91 1.474-8.012 1.474-12.428v-4.761l3.919 2.704c11.425 7.881 20.327 17.687 25.742 28.354 6.506 12.817 7.984 26.539 4.392 40.784-2.339 9.276-8.119 18.427-15.093 23.903-7.025 6.17-19.307 13.499-38.008 13.499zm-39.484-78.815c-7.198 9.999-16.878 29.394-4.57 50.575 1.127 1.938 2.536 3.836 4.186 5.639l0.094 0.108c5.327 6.533 17.579 17.493 39.775 17.493 17.188 0 28.388-6.688 34.756-12.299l0.114-0.094c6.167-4.819 11.295-12.955 13.382-21.232 7.754-30.752-12.098-51.536-24.388-61.065-0.381 4.846-1.355 9.38-2.949 13.751l-1.525 4.184-3.543-4.439c-7.14-8.93-15.152-18.948-16.462-35.516-11.231 8.719-29.384 27.357-25.636 54.686l1.038 7.57-5.312-5.492c-3.905-4.038-6.86-8.606-8.96-13.869z"/>
      <path d="m55.579 127.06-0.315-3e-3c-8.941-0.144-15.717-8.812-17.79-17.301-3.602-14.768 2.368-28.966 16.378-38.955l3.951-2.817v4.853c0 9.314 4.06 14.565 7.986 19.644 3.564 4.609 7.249 9.376 7.415 16.626 0.109 4.876-1.628 9.398-4.891 12.734-3.291 3.365-7.813 5.219-12.734 5.219zm-2.432-49.311c-6.242 5.539-14.431 15.996-10.815 30.822 1.578 6.461 6.675 13.385 13.012 13.487l0.235 2e-3c3.564 0 6.817-1.319 9.16-3.715 2.314-2.366 3.545-5.607 3.466-9.125-0.128-5.606-3.021-9.348-6.371-13.681-3.559-4.604-7.518-9.724-8.687-17.79z"/>
    </g>
</svg>