<?xml version="1.0" encoding="UTF-8"?>
<svg enable-background="new 0 0 116 135" version="1.1" viewBox="0 0 116 135" xml:space="preserve" xmlns="http://www.w3.org/2000/svg">
		<path d="m9.149 70.287 1.531 19.344s13.312 4.788 22.959 7.43c15.147 4.148 19.944-2.041 22.959-5.945 0.957-1.238 3.093-3.684 6.122 1.486 4.995 8.524 14.796 6.935 22.959 4.458 8.164-2.477 19.898-7.43 19.898-7.43v-19.343h-96.428zm34.637 17.217c-10.428 3.973-12.955-10.141-12.955-10.141l16.319 2.333s1.772 5.852-3.364 7.808zm30.217 0c-5.136-1.956-3.364-7.808-3.364-7.808l16.319-2.333s-2.527 14.114-12.955 10.141z" clip-rule="evenodd" fill="#1671ea" fill-rule="evenodd"/>
		<path d="m70.64 103.24s-12.313 6.245-22.524-0.753c0 0 0.753 9.508 8.741 11.401 8.018 1.897 13.145-7.2 13.783-10.648z" clip-rule="evenodd" fill="#1671ea" fill-rule="evenodd"/>
			<path d="m75.105 42.898c-0.12-16.064-3.785-25.509-6.838-30.604-3.249-5.42-6.498-7.16-6.53-7.177l2.239-4.47c0.648 0.32 15.875 8.232 16.129 42.214l-5 0.037z" fill="#1671ea"/>
		<path d="m32.921 48.361c-0.136 0.154-0.471-2.395 1.474-10.368" clip-rule="evenodd" fill="none" fill-rule="evenodd"/>
		<path d="m57.807 0c-28.456 0-51.606 23.214-51.606 51.747v31.978c0 28.533 23.15 51.747 51.606 51.747s51.605-23.214 51.605-51.747v-31.978c1e-3 -28.533-23.149-51.747-51.605-51.747zm46.606 83.725c0 25.776-20.907 46.747-46.605 46.747-25.699 0-46.606-20.971-46.606-46.747v-31.978c-1e-3 -25.776 20.907-46.747 46.605-46.747s46.605 20.971 46.605 46.747v31.978z" fill="#1671ea"/>
		<path d="m9.77 40.918h95.961c4.015 0 7.27 3.316 7.27 7.406v8.887c0 4.09-3.255 7.406-7.27 7.406h-95.961c-4.015 0-7.27-3.316-7.27-7.406v-8.887c0-4.09 3.255-7.406 7.27-7.406z" clip-rule="evenodd" fill="#fff" fill-rule="evenodd" stroke="#1671ea" stroke-miterlimit="10" stroke-width="5"/>
		<path d="m99.237 41.918c1.627 0 2.947 1.326 2.947 2.962v7.406c0 1.636-1.32 2.963-2.947 2.963-1.628 0-2.948-1.327-2.948-2.963v-7.406c0-1.636 1.32-2.962 2.948-2.962z" clip-rule="evenodd" fill="#1671ea" fill-rule="evenodd"/>
		<path d="m84.5 41.918c1.628 0 2.947 1.326 2.947 2.962v7.406c0 1.636-1.32 2.963-2.947 2.963s-2.947-1.327-2.947-2.963v-7.406c-1e-3 -1.636 1.319-2.962 2.947-2.962z" clip-rule="evenodd" fill="#1671ea" fill-rule="evenodd"/>
		<path d="m66.816 41.918c1.628 0 2.947 1.326 2.947 2.962v7.406c0 1.636-1.32 2.963-2.947 2.963-1.628 0-2.947-1.327-2.947-2.963v-7.406c-1e-3 -1.636 1.319-2.962 2.947-2.962z" clip-rule="evenodd" fill="#1671ea" fill-rule="evenodd"/>
		<path d="m49.132 41.918c1.628 0 2.947 1.326 2.947 2.962v7.406c0 1.636-1.319 2.963-2.947 2.963s-2.947-1.327-2.947-2.963v-7.406c-1e-3 -1.636 1.319-2.962 2.947-2.962z" clip-rule="evenodd" fill="#1671ea" fill-rule="evenodd"/>
		<path d="m32.921 41.918c1.628 0 2.947 1.326 2.947 2.962v7.406c0 1.636-1.32 2.963-2.947 2.963-1.628 0-2.947-1.327-2.947-2.963v-7.406c0-1.636 1.319-2.962 2.947-2.962z" clip-rule="evenodd" fill="#1671ea" fill-rule="evenodd"/>
		<path d="m16.711 41.918c1.628 0 2.947 1.326 2.947 2.962v7.406c0 1.636-1.319 2.963-2.947 2.963s-2.947-1.327-2.947-2.963v-7.406c-1e-3 -1.636 1.319-2.962 2.947-2.962z" clip-rule="evenodd" fill="#1671ea" fill-rule="evenodd"/>
		<path d="m35.658 30.148c1.571 0.424 2.5 2.049 2.073 3.628l-1.93 7.15c-0.426 1.579-2.046 2.516-3.618 2.092s-2.5-2.049-2.073-3.628l1.93-7.15c0.427-1.58 2.047-2.516 3.618-2.092z" clip-rule="evenodd" fill="#1671ea" fill-rule="evenodd"/>
		<path d="m42.197 23.905-4.763-1.523c4.681-14.636 18.331-21.89 18.91-22.192l2.311 4.434-1.155-2.217 1.159 2.215c-0.124 0.066-12.421 6.648-16.462 19.283z" fill="#1671ea"/>
</svg>